<svg xmlns="http://www.w3.org/2000/svg" viewBox="0 0 448 512"><!--!Font Awesome Free 6.5.2 by @fontawesome - https://fontawesome.com License - https://fontawesome.com/license/free Copyright 2024 Fonticons, Inc.--><path d="M330.2 258.9a79 79 0 0 0 -55 54.2c-14.3 51.1 21.2 97.8 68.8 102.5a84.1 84.1 0 0 1 -20.9 12.9c-7.6 3.4-10.8 12.5-8.2 20.3l9.9 20c2.9 8.6 12.5 13.5 20.9 9.9 58-24.8 86.3-61.6 86.3-132V336c0-51.2-48.4-91.3-101.9-77.1zM352 356a20 20 0 1 1 20-20 20 20 0 0 1 -20 20zM304 96h16v64h-16a16 16 0 0 0 -16 16v32a16 16 0 0 0 16 16h96a16 16 0 0 0 16-16v-32a16 16 0 0 0 -16-16h-16V48a16 16 0 0 0 -16-16h-48a16 16 0 0 0 -14.3 8.8l-16 32A16 16 0 0 0 304 96zM107.3 36.7a16 16 0 0 0 -22.6 0l-80 96C-5.4 142.7 1.8 160 16 160h48v304a16 16 0 0 0 16 16h32a16 16 0 0 0 16-16V160h48c14.2 0 21.4-17.2 11.3-27.3z"/></svg>